<svg preserveAspectRatio="none" width="100%" height="100%" overflow="visible" style="display: block;" viewBox="0 0 78 36" fill="none" xmlns="http://www.w3.org/2000/svg">
<g id="arrows" clip-path="url(#clip0_0_1554)">
<path id="Vector" d="M0.35697 33.4724C7.62607 36.1164 15.9336 37.2735 23.1962 33.9766C29.1218 31.2875 33.7104 25.6958 34.0999 19.1086L32.5552 19.7551C36.0331 22.5733 40.2288 24.3739 44.6741 24.9561C49.1194 25.5382 53.6398 24.879 57.7309 23.0519C61.5392 21.2723 64.8261 18.5504 67.2781 15.146C70.322 10.9765 71.2891 6.01185 72.7494 1.17005C73.1129 -0.012927 71.2501 -0.517148 70.8931 0.665829C69.5951 4.94523 68.7708 9.37978 66.298 13.1873C64.1363 16.4819 61.1471 19.1561 57.6271 20.9445C49.9815 24.8231 40.5512 23.6595 33.8337 18.4428C33.7046 18.3231 33.5435 18.2432 33.3698 18.2126C33.1961 18.182 33.0172 18.2021 32.8547 18.2704C32.6922 18.3387 32.553 18.4523 32.4538 18.5976C32.3546 18.7429 32.2996 18.9136 32.2955 19.0892C31.971 25.2627 27.3499 30.4148 21.8072 32.7743C15.1028 35.6315 7.37939 34.6037 0.636007 32.4575C-0.0130191 32.2507 -0.266095 33.2333 0.35697 33.4595V33.4724Z" fill="var(--fill-0, #CED2FC)"/>
<path id="Vector_2" d="M70.2571 0.96319C66.4538 2.21728 62.7998 4.37637 59.2237 6.17992C58.2242 6.68414 58.9251 8.25498 59.9766 7.96409C64.2506 6.76133 68.2948 4.86088 71.9446 2.3401L70.6465 1.99749L73.4504 7.46633C74.2876 9.09535 74.982 11.0993 76.2476 12.431C76.3771 12.5504 76.5416 12.6253 76.717 12.6447C76.8923 12.6641 77.0694 12.6269 77.2219 12.5386C77.3745 12.4503 77.4946 12.3156 77.5646 12.1543C77.6346 11.9929 77.6507 11.8135 77.6106 11.6423C77.2602 9.84521 75.9945 8.09337 75.1508 6.47082L72.3146 1.02137C72.1849 0.807949 71.977 0.652974 71.7349 0.58907C71.4928 0.525166 71.2353 0.557318 71.0165 0.678757C67.5051 3.11314 63.6089 4.94421 59.4898 6.09589L60.2427 7.88005C63.715 6.03125 67.5377 4.30526 70.6985 1.9587C71.1463 1.62255 70.9127 0.76926 70.2831 0.976119L70.2571 0.96319Z" fill="var(--fill-0, #CED2FC)"/>
<path id="Vector_3" d="M59.3145 7.38876C62.3779 8.50494 65.4392 9.62974 68.4983 10.7632L72.9246 12.418C74.3265 12.9546 75.7674 13.7626 77.2731 13.8596C77.4152 13.8562 77.5532 13.8117 77.6704 13.7316C77.7875 13.6516 77.8788 13.5393 77.9331 13.4085C77.9874 13.2777 78.0024 13.134 77.9762 12.9949C77.9501 12.8558 77.8839 12.7273 77.7858 12.6249C76.7019 11.7457 75.2935 11.4096 73.9825 10.9312C72.4119 10.3624 70.8283 9.79996 69.2317 9.28281C66.0385 8.24852 62.8106 7.3392 59.5482 6.55486C59.4385 6.52817 59.3227 6.54501 59.2253 6.6018C59.1279 6.65859 59.0565 6.75088 59.0261 6.85917C58.9958 6.96747 59.0089 7.08326 59.0627 7.18209C59.1166 7.28092 59.2068 7.35503 59.3145 7.38876V7.38876Z" fill="var(--fill-0, #CED2FC)"/>
</g>
<defs>
<clipPath id="clip0_0_1554">
<rect width="78" height="36" fill="white"/>
</clipPath>
</defs>
</svg>
