<svg preserveAspectRatio="none" width="100%" height="100%" overflow="visible" style="display: block;" viewBox="0 0 67 67" fill="none" xmlns="http://www.w3.org/2000/svg">
<g id="categorie-icon">
<rect width="67" height="67" rx="12" fill="var(--fill-0, #EBFAF5)"/>
<path id="icon" d="M36.1514 21.9614C36.3673 21.9712 36.5786 22.0293 36.7686 22.1313C36.9584 22.2332 37.122 22.3768 37.248 22.5502C37.3741 22.7236 37.4587 22.923 37.4961 23.1332C37.5334 23.3433 37.5224 23.5588 37.4639 23.7641L37.4629 23.768L32.0146 43.9272L32.0117 43.9369C31.9689 44.1225 31.8891 44.2981 31.7764 44.4526C31.6636 44.6069 31.5203 44.7369 31.3555 44.8354C31.1904 44.9339 31.0064 44.9991 30.8154 45.0258C30.6246 45.0524 30.4303 45.0401 30.2441 44.9906C30.058 44.9411 29.884 44.8553 29.7324 44.7377C29.5808 44.62 29.4543 44.4729 29.3613 44.3061C29.2684 44.1393 29.2101 43.9554 29.1904 43.766C29.1708 43.5768 29.1896 43.3854 29.2461 43.2035H29.2471L29.249 43.1947L34.6943 23.0356L34.6953 23.0317C34.7702 22.7385 34.9377 22.4761 35.1738 22.2836C35.3806 22.1152 35.6304 22.0079 35.8945 21.9731L36.0088 21.9623C36.0561 21.9597 36.104 21.9593 36.1514 21.9614ZM40.291 24.2631C40.4823 24.2636 40.6717 24.3013 40.8477 24.3754C41.0239 24.4496 41.1834 24.5586 41.3164 24.6947L41.3193 24.6977L48.832 32.144C49.1 32.4101 49.25 32.7707 49.25 33.1459C49.25 33.5212 49.1 33.8817 48.832 34.1479L41.3193 41.5971L41.3125 41.6039C41.1817 41.744 41.0236 41.8567 40.8477 41.935C40.6716 42.0133 40.4811 42.0563 40.2881 42.06C40.0951 42.0636 39.9035 42.028 39.7246 41.9565C39.5457 41.8849 39.3833 41.7781 39.2471 41.643C39.1109 41.5079 39.0035 41.3472 38.9316 41.1703C38.8599 40.9935 38.8244 40.8042 38.8281 40.6137C38.8319 40.4232 38.8744 40.2349 38.9531 40.061C39.0318 39.8871 39.1449 39.7297 39.2861 39.6L39.2871 39.601L39.2939 39.5942L45.6133 33.3227L45.792 33.1449L45.6133 32.9682L39.2939 26.7006L39.292 26.6987L39.2178 26.6225C39.0531 26.4385 38.9399 26.2145 38.8887 25.9731C38.8302 25.6972 38.856 25.4102 38.9629 25.1489C39.0698 24.8876 39.2529 24.6632 39.4893 24.5053C39.6964 24.3671 39.9365 24.2852 40.1846 24.267L40.291 24.2631ZM26.6641 24.2621H26.665C26.9544 24.253 27.2398 24.3313 27.4834 24.4858C27.7269 24.6402 27.9167 24.8642 28.0293 25.1274C28.1419 25.3907 28.1715 25.6821 28.1143 25.9623C28.0569 26.2423 27.9153 26.4993 27.708 26.6987L27.7061 26.7006L21.3828 32.9682L21.2041 33.1449L21.3828 33.3227L27.7061 39.5942C27.8387 39.726 27.9439 39.8823 28.0156 40.0541C28.0874 40.2262 28.1242 40.411 28.124 40.5971C28.1239 40.7831 28.0866 40.9672 28.0146 41.1391C27.9426 41.3111 27.8372 41.4682 27.7041 41.6C27.5711 41.7316 27.4132 41.8363 27.2393 41.9076C27.0651 41.979 26.878 42.0153 26.6895 42.0151C26.5011 42.0149 26.3145 41.9783 26.1406 41.9067C25.9667 41.835 25.8086 41.7292 25.6758 41.5971L18.168 34.1479C17.9 33.8817 17.75 33.5212 17.75 33.1459C17.75 32.7707 17.9 32.4101 18.168 32.144L25.6758 24.6977L25.6787 24.6947C25.9377 24.4294 26.291 24.2735 26.6641 24.2621Z" fill="var(--fill-0, #009E68)" stroke="var(--stroke-0, #EBFAF5)" stroke-width="0.5"/>
</g>
</svg>
