<svg preserveAspectRatio="none" width="100%" height="100%" overflow="visible" style="display: block;" viewBox="0 0 541 360" fill="none" xmlns="http://www.w3.org/2000/svg">
<g id="Elements">
<g id="Background">
<path id="Vector" d="M541 360V1.62004e-06L0 1.62004e-06V360L541 360Z" fill="var(--fill-0, #FEDD40)"/>
<path id="Vector_2" d="M502.53 65.8615H0V321.053H502.53V65.8615Z" fill="var(--fill-0, #FEDD40)"/>
</g>
<path id="Vector_3" d="M541 10.0332H476.193V16.3327H541V10.0332Z" fill="var(--fill-0, white)"/>
<path id="Vector_4" d="M541 10.0332H476.193V16.3327H541V10.0332Z" fill="var(--fill-0, white)"/>
<path id="Vector_5" d="M541 27.5957H476.193V33.8952H541V27.5957Z" fill="var(--fill-0, white)"/>
<path id="Vector_6" d="M541 45.1493H476.193V51.4488H541V45.1493Z" fill="var(--fill-0, white)"/>
<path id="Vector_7" d="M541 62.7118H476.193V69.0113H541V62.7118Z" fill="var(--fill-0, white)"/>
<path id="Vector_8" d="M541 80.2743H476.193V86.5738H541V80.2743Z" fill="var(--fill-0, white)"/>
<path id="Vector_9" d="M541 97.8279H476.193V104.127H541V97.8279Z" fill="var(--fill-0, white)"/>
<path id="Vector_10" d="M541 115.39H476.193V121.69H541V115.39Z" fill="var(--fill-0, white)"/>
<path id="Vector_11" d="M541 132.953H476.193V139.252H541V132.953Z" fill="var(--fill-0, white)"/>
<path id="Vector_12" d="M541 150.507H476.193V156.806H541V150.507Z" fill="var(--fill-0, white)"/>
<path id="Vector_13" d="M541 168.069H476.193V174.368H541V168.069Z" fill="var(--fill-0, white)"/>
<path id="Vector_14" d="M541 185.632H476.193V191.931H541V185.632Z" fill="var(--fill-0, white)"/>
<path id="Vector_15" d="M541 203.185H476.193V209.485H541V203.185Z" fill="var(--fill-0, white)"/>
<path id="Vector_16" d="M541 220.748H476.193V227.047H541V220.748Z" fill="var(--fill-0, white)"/>
<path id="Vector_17" d="M541 238.31H476.193V244.61H541V238.31Z" fill="var(--fill-0, white)"/>
<path id="Vector_18" d="M541 255.864H476.193V262.163H541V255.864Z" fill="var(--fill-0, white)"/>
<path id="Vector_19" d="M541 273.426H476.193V279.726H541V273.426Z" fill="var(--fill-0, white)"/>
<path id="Vector_20" d="M541 290.989H476.193V297.288H541V290.989Z" fill="var(--fill-0, white)"/>
<path id="Vector_21" d="M541 308.542H476.193V314.842H541V308.542Z" fill="var(--fill-0, white)"/>
<path id="Vector_22" d="M541 326.105H476.193V332.404H541V326.105Z" fill="var(--fill-0, white)"/>
<path id="Vector_23" d="M541 343.667H476.193V349.967H541V343.667Z" fill="var(--fill-0, white)"/>
<path id="Vector_24" d="M219.149 261.747H40.0977" stroke="var(--stroke-0, #3B3A3A)" stroke-width="0.5" stroke-miterlimit="10"/>
<path id="Vector_25" d="M229.124 217.164H40.0977" stroke="var(--stroke-0, #3B3A3A)" stroke-miterlimit="10"/>
<path id="Vector_26" d="M247.599 261.747H372.694" stroke="var(--stroke-0, #3B3A3A)" stroke-width="0.5" stroke-miterlimit="10"/>
<path id="Vector_27" d="M273.494 307.136H372.694" stroke="var(--stroke-0, #3B3A3A)" stroke-width="0.5" stroke-miterlimit="10"/>
<path id="Vector_28" d="M303.81 282.283C301.925 292.569 299.034 302.644 295.179 312.365C301.428 297.652 308.618 283.357 316.704 269.569C317.04 272.126 315.97 274.629 314.936 276.983C313.264 280.717 311.548 284.441 309.833 288.166L316.855 278.593L312.318 289.936C312.202 290.15 312.173 290.4 312.238 290.635C312.335 290.856 312.725 290.918 312.795 290.688C309.382 293.568 305.565 295.932 301.466 297.704C317.834 291.626 333.664 284.185 348.789 275.461C350.629 274.382 352.654 273.01 352.973 270.896" stroke="var(--stroke-0, black)" stroke-miterlimit="10" stroke-linecap="round"/>
<path id="Vector_29" d="M297.717 246.441L292.189 259.429" stroke="var(--stroke-0, #3B3A3A)" stroke-width="0.5" stroke-miterlimit="10"/>
<path id="Vector_30" d="M340.308 246.441L334.772 259.429" stroke="var(--stroke-0, #3B3A3A)" stroke-width="0.5" stroke-miterlimit="10"/>
<path id="Vector_31" d="M407.176 205.901H405.23V235.603H407.176V205.901Z" fill="var(--fill-0, #3B3A3A)"/>
<path id="Vector_32" d="M402.922 235.594H403.745V205.893H402.922V235.594Z" fill="var(--fill-0, #3B3A3A)"/>
<path id="Vector_33" d="M456.94 205.901H454.994V235.603H456.94V205.901Z" fill="var(--fill-0, #3B3A3A)"/>
<path id="Vector_34" d="M414.331 208.812H415.64V211.334C415.289 211.598 414.893 211.795 414.472 211.918C414.04 212.054 413.59 212.122 413.137 212.121C412.522 212.137 411.914 211.997 411.368 211.714C410.867 211.453 410.447 211.058 410.156 210.573C409.872 210.066 409.723 209.495 409.723 208.914C409.723 208.333 409.872 207.762 410.156 207.255C410.449 206.768 410.872 206.373 411.377 206.114C411.923 205.831 412.531 205.688 413.146 205.698C413.652 205.693 414.154 205.789 414.623 205.981C415.055 206.152 415.441 206.425 415.746 206.777L414.861 207.662C414.66 207.438 414.413 207.26 414.136 207.139C413.86 207.019 413.562 206.959 413.261 206.963C412.892 206.955 412.526 207.04 412.199 207.211C411.902 207.375 411.654 207.616 411.483 207.91C411.315 208.229 411.227 208.584 411.227 208.945C411.227 209.306 411.315 209.661 411.483 209.98C411.654 210.276 411.901 210.521 412.199 210.688C412.52 210.859 412.88 210.944 413.243 210.936C413.631 210.941 414.014 210.85 414.357 210.67L414.331 208.812Z" fill="var(--fill-0, #3B3A3A)"/>
<path id="Vector_35" d="M420.928 212.015L419.734 210.29H418.408V212.015H416.975V205.822H419.628C420.12 205.809 420.608 205.903 421.061 206.096C421.441 206.257 421.764 206.528 421.989 206.875C422.209 207.234 422.325 207.648 422.325 208.069C422.325 208.49 422.209 208.904 421.989 209.263C421.757 209.608 421.428 209.876 421.043 210.033L422.44 212.024L420.928 212.015ZM420.566 207.255C420.28 207.053 419.933 206.956 419.584 206.981H418.408V209.148H419.584C419.936 209.173 420.284 209.069 420.566 208.856C420.679 208.758 420.768 208.635 420.826 208.497C420.884 208.359 420.91 208.21 420.902 208.06C420.91 207.909 420.884 207.758 420.826 207.619C420.768 207.48 420.679 207.355 420.566 207.255V207.255Z" fill="var(--fill-0, #3B3A3A)"/>
<path id="Vector_36" d="M427.579 210.688H424.696L424.147 212.015H422.679L425.438 205.822H426.862L429.639 212.015H428.127L427.579 210.688ZM427.128 209.6L426.146 207.22L425.155 209.6H427.128Z" fill="var(--fill-0, #3B3A3A)"/>
<path id="Vector_37" d="M434.406 206.087C434.789 206.248 435.115 206.519 435.343 206.866C435.557 207.227 435.67 207.64 435.67 208.06C435.67 208.48 435.557 208.893 435.343 209.255C435.117 209.603 434.79 209.875 434.406 210.033C433.954 210.227 433.465 210.32 432.973 210.307H431.718V212.015H430.285V205.822H432.938C433.441 205.801 433.942 205.892 434.406 206.087V206.087ZM433.875 208.856C433.99 208.759 434.08 208.637 434.139 208.498C434.197 208.36 434.222 208.21 434.211 208.06C434.222 207.909 434.197 207.758 434.139 207.618C434.08 207.478 433.99 207.354 433.875 207.255C433.59 207.051 433.243 206.954 432.894 206.981H431.718V209.104H432.894C433.24 209.138 433.587 209.051 433.875 208.856V208.856Z" fill="var(--fill-0, #3B3A3A)"/>
<path id="Vector_38" d="M442.383 205.813V212.006H440.942V209.467H438.129V212.006H436.688V205.813H438.129V208.219H440.942V205.777L442.383 205.813Z" fill="var(--fill-0, #3B3A3A)"/>
<path id="Vector_39" d="M443.851 205.813H445.293V212.006H443.851V205.813Z" fill="var(--fill-0, #3B3A3A)"/>
<path id="Vector_40" d="M448.017 211.758C447.518 211.496 447.102 211.101 446.814 210.617C446.524 210.112 446.372 209.54 446.372 208.958C446.372 208.376 446.524 207.804 446.814 207.299C447.102 206.815 447.518 206.42 448.017 206.158C448.548 205.878 449.141 205.735 449.741 205.742C450.243 205.735 450.74 205.834 451.2 206.034C451.626 206.213 452.002 206.493 452.297 206.848L451.413 207.733C451.223 207.502 450.984 207.317 450.713 207.191C450.442 207.066 450.146 207.003 449.847 207.007C449.49 207 449.136 207.085 448.821 207.255C448.524 207.42 448.279 207.665 448.114 207.963C447.951 208.282 447.866 208.635 447.866 208.994C447.866 209.352 447.951 209.705 448.114 210.024C448.281 210.32 448.526 210.565 448.821 210.732C449.136 210.902 449.49 210.987 449.847 210.98C450.146 210.982 450.442 210.918 450.713 210.791C450.984 210.664 451.223 210.477 451.413 210.245L452.297 211.13C452.005 211.491 451.628 211.774 451.2 211.953C450.691 212.159 450.144 212.254 449.595 212.233C449.046 212.212 448.508 212.074 448.017 211.829V211.758Z" fill="var(--fill-0, #3B3A3A)"/>
<path id="Vector_41" d="M410.422 217.191H413.738C414.488 217.176 415.231 217.34 415.905 217.669C416.512 217.961 417.019 218.426 417.364 219.005C417.706 219.612 417.885 220.298 417.885 220.995C417.885 221.693 417.706 222.378 417.364 222.986C417.019 223.565 416.512 224.029 415.905 224.322C415.231 224.651 414.488 224.815 413.738 224.8H410.422V217.191ZM413.676 223.605C414.185 223.619 414.689 223.506 415.144 223.278C415.552 223.087 415.894 222.779 416.126 222.393C416.352 221.972 416.47 221.5 416.47 221.022C416.47 220.543 416.352 220.072 416.126 219.651C415.894 219.265 415.552 218.957 415.144 218.766C414.688 218.542 414.185 218.43 413.676 218.438H411.828V223.658L413.676 223.605Z" fill="var(--fill-0, #3B3A3A)"/>
<path id="Vector_42" d="M425.085 223.614V224.8H419.389V217.191H424.934V218.376H420.795V220.358H424.466V221.491H420.795V223.588L425.085 223.614Z" fill="var(--fill-0, #3B3A3A)"/>
<path id="Vector_43" d="M427.313 224.658C426.842 224.527 426.403 224.301 426.022 223.995L426.509 222.898C426.855 223.162 427.243 223.366 427.658 223.499C428.096 223.654 428.556 223.731 429.02 223.729C429.458 223.757 429.895 223.665 430.285 223.464C430.407 223.387 430.509 223.282 430.582 223.157C430.654 223.032 430.695 222.891 430.701 222.747C430.703 222.645 430.683 222.544 430.642 222.451C430.6 222.357 430.539 222.274 430.462 222.207C430.294 222.054 430.095 221.939 429.878 221.871C429.642 221.795 429.315 221.706 428.896 221.606C428.419 221.497 427.95 221.358 427.49 221.19C427.148 221.049 426.844 220.828 426.606 220.544C426.337 220.209 426.198 219.788 426.217 219.359C426.213 218.949 426.333 218.548 426.562 218.208C426.815 217.841 427.172 217.557 427.587 217.394C428.105 217.176 428.662 217.065 429.224 217.067C429.686 217.068 430.147 217.128 430.594 217.244C431.006 217.343 431.397 217.51 431.753 217.739L431.311 218.837C430.984 218.644 430.633 218.495 430.267 218.394C429.925 218.293 429.571 218.243 429.215 218.244C428.783 218.209 428.351 218.308 427.977 218.527C427.852 218.607 427.75 218.717 427.679 218.847C427.607 218.976 427.57 219.122 427.57 219.27C427.564 219.37 427.582 219.471 427.622 219.563C427.662 219.655 427.723 219.736 427.8 219.801C427.972 219.951 428.174 220.063 428.392 220.128C428.631 220.208 428.958 220.296 429.365 220.403C429.837 220.506 430.301 220.642 430.754 220.81C431.111 220.946 431.43 221.168 431.682 221.455C431.954 221.785 432.093 222.205 432.071 222.632C432.075 223.036 431.955 223.432 431.726 223.765C431.47 224.135 431.11 224.421 430.692 224.587C430.154 224.799 429.58 224.901 429.003 224.888C428.431 224.896 427.862 224.818 427.313 224.658V224.658Z" fill="var(--fill-0, #3B3A3A)"/>
<path id="Vector_44" d="M433.486 217.191H434.901V224.8H433.486V217.191Z" fill="var(--fill-0, #3B3A3A)"/>
<path id="Vector_45" d="M442.144 220.907H443.48V223.942C443.068 224.259 442.604 224.502 442.109 224.658C441.589 224.824 441.046 224.908 440.499 224.906C439.77 224.916 439.049 224.742 438.403 224.402C437.79 224.069 437.279 223.577 436.922 222.977C436.565 222.378 436.377 221.693 436.377 220.995C436.377 220.298 436.565 219.613 436.922 219.013C437.279 218.414 437.79 217.922 438.403 217.589C439.055 217.248 439.782 217.074 440.517 217.085C441.122 217.072 441.723 217.18 442.286 217.403C442.789 217.59 443.241 217.893 443.604 218.288L442.719 219.173C442.449 218.889 442.124 218.665 441.763 218.513C441.402 218.36 441.015 218.284 440.623 218.288C440.128 218.28 439.639 218.395 439.199 218.624C438.79 218.841 438.45 219.169 438.218 219.571C437.985 219.994 437.864 220.469 437.864 220.951C437.864 221.434 437.985 221.908 438.218 222.331C438.452 222.734 438.791 223.064 439.199 223.287C439.633 223.522 440.121 223.641 440.614 223.632C441.161 223.642 441.701 223.508 442.18 223.243L442.144 220.907Z" fill="var(--fill-0, #3B3A3A)"/>
<path id="Vector_46" d="M452.085 217.191V224.8H450.926L446.734 219.651V224.8H445.337V217.191H446.495L450.687 222.34V217.191H452.085Z" fill="var(--fill-0, #3B3A3A)"/>
<path id="Vector_47" d="M410.51 230.02H411.801V235.594H410.51V230.02Z" fill="var(--fill-0, #3B3A3A)"/>
<path id="Vector_48" d="M418.24 230.02V235.594H417.187L414.401 232.205V235.594H413.128V230.02H414.189L416.957 233.409V230.02H418.24Z" fill="var(--fill-0, #3B3A3A)"/>
<path id="Vector_49" d="M420.123 235.514C419.765 235.419 419.426 235.26 419.124 235.045L419.566 234.072C419.835 234.262 420.134 234.406 420.451 234.497C420.771 234.601 421.105 234.654 421.441 234.656C421.722 234.675 422.002 234.62 422.255 234.497C422.335 234.454 422.401 234.39 422.448 234.312C422.495 234.234 422.52 234.145 422.52 234.054C422.521 233.991 422.507 233.929 422.479 233.872C422.451 233.815 422.411 233.766 422.361 233.727C422.245 233.629 422.109 233.556 421.963 233.515C421.804 233.462 421.583 233.409 421.308 233.338C420.955 233.259 420.606 233.159 420.265 233.037C419.994 232.938 419.753 232.77 419.566 232.55C419.364 232.301 419.26 231.986 419.274 231.666C419.269 231.35 419.362 231.041 419.54 230.781C419.738 230.498 420.015 230.28 420.336 230.153C420.746 229.989 421.185 229.911 421.627 229.923C421.978 229.924 422.328 229.965 422.67 230.046C422.982 230.126 423.28 230.251 423.555 230.418L423.157 231.391C422.688 231.114 422.154 230.964 421.609 230.958C421.33 230.94 421.051 231.001 420.804 231.135C420.725 231.182 420.66 231.25 420.615 231.331C420.57 231.411 420.547 231.502 420.548 231.595C420.547 231.688 420.575 231.78 420.629 231.856C420.683 231.932 420.76 231.99 420.849 232.019C421.133 232.142 421.429 232.234 421.733 232.294C422.087 232.375 422.435 232.478 422.776 232.603C423.047 232.699 423.288 232.864 423.475 233.081C423.681 233.329 423.785 233.645 423.767 233.966C423.774 234.281 423.681 234.591 423.502 234.851C423.301 235.135 423.021 235.353 422.697 235.479C422.283 235.642 421.841 235.72 421.397 235.709C420.965 235.703 420.537 235.638 420.123 235.514V235.514Z" fill="var(--fill-0, #3B3A3A)"/>
<path id="Vector_50" d="M425.73 231.073H423.962V230.02H428.817V231.073H427.048V235.594H425.757L425.73 231.073Z" fill="var(--fill-0, #3B3A3A)"/>
<path id="Vector_51" d="M429.498 230.02H430.789V235.594H429.498V230.02Z" fill="var(--fill-0, #3B3A3A)"/>
<path id="Vector_52" d="M433.265 231.073H431.496V230.02H436.361V231.073H434.592V235.594H433.301L433.265 231.073Z" fill="var(--fill-0, #3B3A3A)"/>
<path id="Vector_53" d="M437.554 235.028C437.323 234.774 437.144 234.477 437.03 234.153C436.916 233.829 436.869 233.486 436.891 233.143V230.02H438.182V233.09C438.182 234.09 438.598 234.594 439.42 234.594C439.592 234.605 439.765 234.579 439.925 234.516C440.086 234.453 440.23 234.356 440.349 234.231C440.588 233.901 440.701 233.496 440.667 233.09V230.02H441.941V233.143C441.963 233.486 441.916 233.829 441.802 234.153C441.688 234.477 441.509 234.774 441.278 235.028C440.752 235.457 440.094 235.691 439.416 235.691C438.738 235.691 438.08 235.457 437.554 235.028V235.028Z" fill="var(--fill-0, #3B3A3A)"/>
<path id="Vector_54" d="M444.258 231.073H442.489V230.02H447.353V231.073H445.585V235.594H444.258V231.073Z" fill="var(--fill-0, #3B3A3A)"/>
<path id="Vector_55" d="M452.368 234.559V235.594H448.043V230.02H452.262V231.055H449.334V232.267H451.917V233.267H449.334V234.559H452.368Z" fill="var(--fill-0, #3B3A3A)"/>
<path id="Vector_56" d="M409.051 155.532C408.839 155.612 407.928 154.541 407.777 153.205C407.662 152.081 408.193 151.772 408.122 150.4C408.04 149.736 407.904 149.079 407.716 148.436C408.451 149.135 408.904 150.079 408.989 151.09C409.113 151.975 408.856 152.188 408.918 153.683C408.98 154.913 409.192 155.479 409.051 155.532Z" fill="var(--fill-0, #3B3A3A)"/>
<path id="Vector_57" d="M409.042 155.532C408.883 155.373 409.316 154.435 410.103 153.816C410.89 153.196 411.934 153.063 413.464 152.975C414.693 152.904 416.17 152.975 416.179 153.125C416.188 153.276 415.949 153.258 413.959 153.692C413.078 153.836 412.209 154.046 411.359 154.32C409.882 154.886 409.201 155.691 409.042 155.532Z" fill="var(--fill-0, #3B3A3A)"/>
<path id="Vector_58" d="M408.37 156.903C408.653 156.903 408.945 155.806 408.697 154.806C408.494 153.992 408.06 153.78 407.618 153.037C406.522 151.267 407.229 149.374 406.92 149.321C406.61 149.268 405.584 151.197 406.15 152.86C406.345 153.417 406.53 153.4 407.141 154.47C407.999 156.019 408.105 156.903 408.37 156.903Z" fill="var(--fill-0, #3B3A3A)"/>
<path id="Vector_59" d="M408.202 156.788C408.114 156.514 409.086 155.904 409.856 155.594C410.631 155.388 411.42 155.237 412.217 155.143C413.135 154.811 413.99 154.326 414.746 153.709C414.23 154.788 413.359 155.657 412.279 156.169C410.492 157.142 408.326 157.178 408.202 156.788Z" fill="var(--fill-0, #3B3A3A)"/>
<path id="Vector_60" d="M408.078 158.673C408.282 158.567 408.078 157.691 407.795 157.063C407.512 156.434 407.273 156.364 406.911 155.62C406.546 154.905 406.318 154.128 406.239 153.329C406.141 152.55 406.239 152.161 406.15 152.143C405.646 152.907 405.45 153.833 405.602 154.736C405.745 155.62 406.11 156.454 406.663 157.16C407.043 157.717 407.831 158.752 408.078 158.673Z" fill="var(--fill-0, #3B3A3A)"/>
<path id="Vector_61" d="M407.937 158.593C408.14 158.182 408.444 157.828 408.821 157.567C409.555 157.045 410.271 157.186 411.138 157.098C413.269 156.877 414.525 155.479 414.676 155.647C414.826 155.815 413.791 156.886 412.482 157.629C411.091 158.381 409.513 158.716 407.937 158.593V158.593Z" fill="var(--fill-0, #3B3A3A)"/>
<path id="Vector_62" d="M408.963 155.302C408.644 155.116 408.963 153.745 409.608 152.648C410.103 151.816 410.493 151.701 412.04 150.188C413.473 148.808 413.853 148.242 413.977 148.33C414.101 148.418 413.172 150.648 411.739 152.568C411.023 153.568 409.396 155.558 408.963 155.302Z" fill="var(--fill-0, #3B3A3A)"/>
<path id="Vector_63" d="M430.471 189.861C429.264 189.857 428.059 189.78 426.862 189.631C422.776 189.126 412.756 186.976 408.052 178.129C404.682 171.794 405.796 165.282 406.168 163.15C406.732 159.896 407.908 156.78 409.635 153.966L410.369 154.417C408.705 157.129 407.568 160.131 407.017 163.265C406.663 165.335 405.575 171.617 408.786 177.704C413.296 186.189 422.989 188.233 426.942 188.719C432.241 189.499 437.648 188.474 442.295 185.808C446.581 183.368 449.924 179.557 451.784 174.988C453.635 170.167 453.766 164.854 452.155 159.947C451.422 157.775 450.351 155.733 448.981 153.895L449.67 153.382C451.095 155.293 452.211 157.416 452.978 159.673C454.652 164.779 454.514 170.307 452.589 175.324C450.654 180.072 447.182 184.032 442.728 186.569C439.015 188.755 434.779 189.892 430.471 189.861V189.861Z" fill="var(--fill-0, #3B3A3A)"/>
<path id="Vector_64" d="M406.955 161.15C407.043 161.363 408.458 161.283 409.52 160.469C410.404 159.779 410.28 159.177 411.288 158.284C411.827 157.886 412.398 157.533 412.995 157.231C411.989 157.172 410.997 157.487 410.209 158.115C409.458 158.664 409.511 159 408.379 159.947C407.459 160.77 406.902 161.009 406.955 161.15Z" fill="var(--fill-0, #3B3A3A)"/>
<path id="Vector_65" d="M406.973 161.159C407.194 161.159 407.565 160.203 407.477 159.204C407.388 158.204 406.76 157.363 405.77 156.196C404.974 155.249 403.922 154.214 403.789 154.32C403.656 154.426 403.851 154.585 404.903 156.328C405.402 157.076 405.846 157.86 406.23 158.673C406.849 160.106 406.743 161.15 406.973 161.159Z" fill="var(--fill-0, #3B3A3A)"/>
<path id="Vector_66" d="M406.133 164.787C406.053 164.574 406.796 164.061 407.406 163.769C407.939 163.577 408.482 163.414 409.033 163.282C409.78 162.98 410.463 162.542 411.05 161.991C411.633 161.469 411.828 161.106 411.89 161.159C411.774 162.067 411.311 162.894 410.599 163.468C409.908 164.042 409.084 164.432 408.202 164.601C407.512 164.787 406.23 165.043 406.133 164.787Z" fill="var(--fill-0, #3B3A3A)"/>
<path id="Vector_67" d="M406.23 164.866C406.355 164.434 406.37 163.978 406.274 163.539C406.062 162.654 405.39 162.292 404.832 161.654C403.373 160.097 403.347 158.213 403.143 158.257C402.94 158.301 402.975 159.752 403.497 161.194C404.043 162.652 404.99 163.925 406.23 164.866V164.866Z" fill="var(--fill-0, #3B3A3A)"/>
<path id="Vector_68" d="M406.601 162.99C406.451 162.752 407.096 161.849 408.025 161.416C408.794 161.053 409.228 161.256 410.068 161.15C412.137 160.867 413.154 159.133 413.384 159.381C413.614 159.628 412.774 161.601 411.129 162.203C410.511 162.332 409.885 162.415 409.254 162.451C407.494 162.716 406.752 163.212 406.601 162.99Z" fill="var(--fill-0, #3B3A3A)"/>
<path id="Vector_69" d="M406.796 163.097C407.07 162.99 406.937 161.858 406.681 161.053C406.35 160.325 405.969 159.622 405.54 158.947C405.221 158.025 405.057 157.056 405.054 156.081C404.543 157.159 404.418 158.38 404.7 159.54C405.08 161.495 406.416 163.203 406.796 163.097Z" fill="var(--fill-0, #3B3A3A)"/>
<path id="Vector_70" d="M406.124 167.697C405.973 167.857 404.682 167.282 403.983 166.131C403.391 165.167 403.736 164.663 403.099 163.477C402.739 162.914 402.334 162.382 401.887 161.885C402.849 162.191 403.662 162.844 404.169 163.716C404.673 164.486 404.514 164.76 405.213 166.078C405.796 167.158 406.23 167.582 406.124 167.697Z" fill="var(--fill-0, #3B3A3A)"/>
<path id="Vector_71" d="M406.115 167.697C405.911 167.627 405.903 166.591 406.345 165.689C406.787 164.787 407.671 164.229 408.998 163.495C410.086 162.902 411.439 162.318 411.527 162.46C411.616 162.601 411.368 162.681 409.758 163.937C409.026 164.447 408.329 165.006 407.671 165.609C406.601 166.76 406.327 167.768 406.115 167.697Z" fill="var(--fill-0, #3B3A3A)"/>
<path id="Vector_72" d="M406.097 169.219C406.345 169.069 406.097 167.981 405.496 167.184C404.956 166.53 404.479 166.53 403.771 166.061C402.002 164.919 401.852 162.92 401.551 163.008C401.251 163.097 401.145 165.273 402.365 166.547C402.781 166.972 402.94 166.866 403.948 167.574C405.416 168.582 405.867 169.352 406.097 169.219Z" fill="var(--fill-0, #3B3A3A)"/>
<path id="Vector_73" d="M405.894 169.193C405.699 168.98 406.309 168.016 406.884 167.423C407.609 166.645 408.043 166.68 408.821 166.007C409.506 165.312 410.07 164.508 410.492 163.628C410.489 164.823 410.077 165.981 409.325 166.91C408.113 168.538 406.177 169.493 405.894 169.193Z" fill="var(--fill-0, #3B3A3A)"/>
<path id="Vector_74" d="M406.566 170.909C406.707 170.723 406.133 170.024 405.628 169.582C405.124 169.14 404.85 169.166 404.187 168.697C403.552 168.211 403.012 167.611 402.595 166.928C402.179 166.273 402.091 165.884 402.011 165.901C401.886 166.807 402.107 167.726 402.63 168.476C403.129 169.231 403.819 169.842 404.629 170.246C405.248 170.537 406.407 171.13 406.566 170.909Z" fill="var(--fill-0, #3B3A3A)"/>
<path id="Vector_75" d="M406.433 170.936C406.428 170.485 406.538 170.04 406.752 169.644C407.203 168.865 407.91 168.679 408.653 168.228C410.484 167.122 411.023 165.317 411.2 165.424C411.377 165.53 410.952 166.901 410.059 168.149C409.14 169.404 407.882 170.371 406.433 170.936V170.936Z" fill="var(--fill-0, #3B3A3A)"/>
<path id="Vector_76" d="M406.645 173.714C406.813 173.864 408.052 173.192 408.662 171.997C409.184 170.989 408.794 170.511 409.352 169.255C409.668 168.666 410.032 168.104 410.439 167.574C409.508 167.952 408.749 168.661 408.308 169.564C407.857 170.378 408.034 170.635 407.424 172.006C406.928 173.112 406.53 173.563 406.645 173.714Z" fill="var(--fill-0, #3B3A3A)"/>
<path id="Vector_77" d="M406.654 173.714C406.858 173.625 406.787 172.599 406.274 171.732C405.761 170.865 404.841 170.378 403.444 169.741C402.321 169.228 400.924 168.741 400.853 168.856C400.782 168.971 401.021 169.069 402.728 170.192C403.497 170.643 404.233 171.149 404.93 171.705C406.097 172.767 406.442 173.758 406.654 173.714Z" fill="var(--fill-0, #3B3A3A)"/>
<path id="Vector_78" d="M407.45 177.306C407.291 177.155 407.733 176.368 408.158 175.846C408.582 175.324 408.856 175.306 409.431 174.705C409.972 174.112 410.401 173.425 410.696 172.679C410.997 171.953 411.032 171.555 411.103 171.564C411.38 172.439 411.317 173.387 410.926 174.218C410.545 175.029 409.967 175.731 409.246 176.262C408.697 176.722 407.654 177.501 407.45 177.306Z" fill="var(--fill-0, #3B3A3A)"/>
<path id="Vector_79" d="M407.592 177.315C407.517 176.873 407.335 176.457 407.061 176.103C406.495 175.395 405.761 175.333 404.956 175.014C402.966 174.227 402.135 172.537 401.976 172.67C401.817 172.802 402.462 174.094 403.55 175.174C404.669 176.254 406.07 176.996 407.592 177.315Z" fill="var(--fill-0, #3B3A3A)"/>
<path id="Vector_80" d="M407.114 175.483C406.875 175.333 407.07 174.236 407.724 173.448C408.264 172.802 408.75 172.794 409.493 172.334C411.262 171.192 411.421 169.193 411.722 169.281C412.022 169.37 412.12 171.555 410.89 172.82C410.475 173.245 410.316 173.139 409.307 173.846C407.795 174.846 407.335 175.616 407.114 175.483Z" fill="var(--fill-0, #3B3A3A)"/>
<path id="Vector_81" d="M407.309 175.483C407.512 175.271 406.902 174.307 406.327 173.714C405.602 172.935 405.169 172.971 404.399 172.298C403.712 171.603 403.15 170.795 402.736 169.909C402.586 169.971 402.798 171.679 403.895 173.192C405.089 174.784 407.035 175.749 407.309 175.483Z" fill="var(--fill-0, #3B3A3A)"/>
<path id="Vector_82" d="M408.812 178.244C408.618 178.129 408.865 177.262 409.148 176.651C409.431 176.041 409.688 175.961 410.103 175.236C410.492 174.531 410.744 173.76 410.846 172.962C410.97 172.183 410.899 171.794 410.979 171.785C411.468 172.578 411.633 173.528 411.439 174.439C411.264 175.318 410.872 176.14 410.298 176.828C409.873 177.368 409.051 178.376 408.812 178.244Z" fill="var(--fill-0, #3B3A3A)"/>
<path id="Vector_83" d="M408.945 178.208C408.77 177.795 408.493 177.433 408.14 177.155C407.415 176.616 406.698 176.731 405.832 176.616C403.718 176.333 402.507 174.89 402.383 175.05C402.259 175.209 403.196 176.315 404.505 177.102C405.85 177.886 407.39 178.27 408.945 178.208V178.208Z" fill="var(--fill-0, #3B3A3A)"/>
<path id="Vector_84" d="M410.652 180.491C410.652 180.721 409.272 181.084 407.999 180.641C406.928 180.27 406.875 179.659 405.611 179.128C404.976 178.918 404.326 178.762 403.665 178.66C404.604 178.298 405.644 178.298 406.584 178.66C407.468 178.943 407.512 179.252 408.892 179.827C410.05 180.288 410.652 180.341 410.652 180.491Z" fill="var(--fill-0, #3B3A3A)"/>
<path id="Vector_85" d="M410.652 180.5C410.448 180.58 409.767 179.783 409.564 178.801C409.36 177.819 409.67 176.837 410.245 175.413C410.705 174.271 411.386 172.953 411.545 173.015C411.704 173.077 411.545 173.289 411.103 175.271C410.856 176.141 410.673 177.028 410.554 177.925C410.422 179.465 410.846 180.429 410.652 180.5Z" fill="var(--fill-0, #3B3A3A)"/>
<path id="Vector_86" d="M411.58 181.677C411.678 181.411 410.837 180.686 409.811 180.482C408.98 180.314 408.609 180.615 407.769 180.703C405.69 180.925 404.293 179.482 404.116 179.739C403.939 179.996 405.23 181.756 406.973 181.951C407.605 181.931 408.235 181.863 408.856 181.747C410.652 181.677 411.536 181.942 411.58 181.677Z" fill="var(--fill-0, #3B3A3A)"/>
<path id="Vector_87" d="M411.412 181.8C411.12 181.8 410.988 180.633 411.041 179.792C411.193 179.004 411.397 178.227 411.651 177.465C411.747 176.496 411.675 175.517 411.439 174.572C412.195 175.495 412.607 176.652 412.606 177.846C412.712 179.907 411.81 181.854 411.412 181.8Z" fill="var(--fill-0, #3B3A3A)"/>
<path id="Vector_88" d="M413.013 182.703C413.013 182.473 412.129 182.296 411.448 182.269C410.882 182.309 410.318 182.377 409.758 182.473C408.954 182.496 408.153 182.367 407.397 182.092C406.654 181.845 406.336 181.606 406.292 181.668C406.766 182.45 407.518 183.025 408.397 183.278C409.26 183.526 410.173 183.554 411.05 183.358C411.757 183.251 413.031 182.977 413.013 182.703Z" fill="var(--fill-0, #3B3A3A)"/>
<path id="Vector_89" d="M412.925 182.809C412.64 182.462 412.448 182.048 412.367 181.606C412.208 180.721 412.642 180.128 412.933 179.314C413.65 177.297 412.933 175.563 413.137 175.528C413.34 175.492 413.88 176.828 413.977 178.359C414.056 179.912 413.691 181.456 412.925 182.809V182.809Z" fill="var(--fill-0, #3B3A3A)"/>
<path id="Vector_90" d="M414.817 184.8C415.047 184.8 415.578 183.499 415.295 182.19C415.065 181.084 414.463 180.951 414.101 179.624C413.97 178.968 413.896 178.302 413.88 177.633C413.395 178.519 413.257 179.553 413.491 180.535C413.659 181.42 413.959 181.535 414.375 182.968C414.693 184.18 414.667 184.791 414.817 184.8Z" fill="var(--fill-0, #3B3A3A)"/>
<path id="Vector_91" d="M414.826 184.791C414.932 184.596 414.225 183.835 413.278 183.49C412.332 183.145 411.315 183.349 409.829 183.738C408.635 184.057 407.247 184.57 407.291 184.729C407.335 184.888 407.556 184.782 409.582 184.579C410.46 184.449 411.347 184.375 412.235 184.357C413.827 184.446 414.72 184.994 414.826 184.791Z" fill="var(--fill-0, #3B3A3A)"/>
<path id="Vector_92" d="M417.727 187.1C417.497 187.1 417.346 186.215 417.346 185.516C417.346 184.818 417.541 184.632 417.603 183.835C417.65 183.03 417.548 182.224 417.302 181.455C417.081 180.712 416.851 180.385 416.922 180.341C417.682 180.845 418.228 181.615 418.452 182.499C418.679 183.37 418.679 184.284 418.452 185.154C418.337 185.862 418.019 187.127 417.727 187.1Z" fill="var(--fill-0, #3B3A3A)"/>
<path id="Vector_93" d="M417.859 186.985C417.525 186.685 417.121 186.475 416.683 186.375C415.88 186.319 415.077 186.491 414.366 186.87C412.323 187.525 410.616 186.737 410.572 186.941C410.528 187.144 411.854 187.728 413.376 187.879C414.925 188.013 416.48 187.703 417.859 186.985V186.985Z" fill="var(--fill-0, #3B3A3A)"/>
<path id="Vector_94" d="M416.329 185.906C416.046 185.906 415.507 184.968 415.516 183.942C415.516 183.101 415.887 182.791 416.144 181.986C416.789 179.996 415.657 178.332 415.94 178.217C416.223 178.102 417.709 179.721 417.523 181.464C417.376 182.068 417.184 182.659 416.948 183.234C416.453 184.986 416.586 185.87 416.329 185.906Z" fill="var(--fill-0, #3B3A3A)"/>
<path id="Vector_95" d="M416.462 185.764C416.462 185.463 415.41 185.101 414.569 184.986C413.769 184.973 412.968 185.015 412.173 185.109C411.204 185.003 410.26 184.737 409.378 184.322C410.14 185.232 411.187 185.855 412.35 186.092C414.322 186.64 416.436 186.162 416.462 185.764Z" fill="var(--fill-0, #3B3A3A)"/>
<path id="Vector_96" d="M419.832 188.268C419.61 188.268 419.495 187.383 419.522 186.676C419.6 186.11 419.709 185.548 419.849 184.994C419.929 184.195 419.86 183.388 419.646 182.614C419.51 182.244 419.394 181.866 419.301 181.482C420.045 182.014 420.563 182.807 420.751 183.703C420.936 184.584 420.893 185.497 420.627 186.357C420.477 187.047 420.106 188.303 419.832 188.268Z" fill="var(--fill-0, #3B3A3A)"/>
<path id="Vector_97" d="M419.947 188.188C419.625 187.877 419.229 187.651 418.797 187.534C417.912 187.321 417.302 187.711 416.462 187.941C414.401 188.507 412.721 187.658 412.668 187.852C412.615 188.047 413.915 188.737 415.427 188.905C416.971 189.101 418.539 188.852 419.947 188.188Z" fill="var(--fill-0, #3B3A3A)"/>
<path id="Vector_98" d="M421.476 188.197C421.255 188.197 420.928 187.383 420.795 186.72C420.734 186.153 420.704 185.583 420.707 185.012C420.594 184.216 420.333 183.448 419.938 182.747C419.566 182.066 419.274 181.792 419.336 181.73C420.182 182.073 420.869 182.72 421.264 183.543C421.66 184.348 421.839 185.241 421.786 186.136C421.804 186.861 421.751 188.162 421.476 188.197Z" fill="var(--fill-0, #3B3A3A)"/>
<path id="Vector_99" d="M421.574 188.091C421.183 187.868 420.742 187.746 420.291 187.737C419.407 187.737 418.885 188.259 418.125 188.684C416.259 189.728 414.428 189.312 414.428 189.516C414.428 189.719 415.834 190.029 417.355 189.869C418.902 189.69 420.365 189.073 421.574 188.091V188.091Z" fill="var(--fill-0, #3B3A3A)"/>
<path id="Vector_100" d="M424.298 188.896C424.421 189.091 423.546 190.197 422.272 190.604C421.193 190.949 420.787 190.489 419.451 190.834C418.815 191.043 418.2 191.31 417.612 191.63C418.142 190.774 418.971 190.143 419.938 189.861C420.822 189.56 421.034 189.772 422.485 189.409C423.705 189.091 424.218 188.755 424.298 188.896Z" fill="var(--fill-0, #3B3A3A)"/>
<path id="Vector_101" d="M424.298 188.905C424.174 189.091 423.174 188.852 422.405 188.206C421.636 187.56 421.308 186.569 420.91 185.083C420.592 183.889 420.353 182.429 420.512 182.429C420.672 182.429 420.689 182.632 421.521 184.499C421.838 185.332 422.213 186.142 422.644 186.923C423.502 188.206 424.421 188.755 424.298 188.905Z" fill="var(--fill-0, #3B3A3A)"/>
<path id="Vector_102" d="M425.775 189.294C425.686 189.02 424.581 188.949 423.652 189.392C422.891 189.754 422.768 190.223 422.149 190.798C420.619 192.223 418.611 191.913 418.655 192.223C418.699 192.533 420.76 193.161 422.264 192.267C422.776 191.966 422.715 191.789 423.643 190.975C424.996 189.808 425.845 189.542 425.775 189.294Z" fill="var(--fill-0, #3B3A3A)"/>
<path id="Vector_103" d="M425.686 189.48C425.43 189.622 424.634 188.799 424.174 188.091C423.824 187.374 423.528 186.632 423.289 185.87C422.785 185.036 422.139 184.296 421.379 183.685C421.468 183.552 423.077 184.172 424.28 185.605C425.483 187.038 426.049 189.286 425.686 189.48Z" fill="var(--fill-0, #3B3A3A)"/>
<path id="Vector_104" d="M427.526 189.232C427.375 189.056 426.562 189.445 426.013 189.834C425.465 190.223 425.421 190.489 424.775 191.011C424.146 191.511 423.429 191.889 422.661 192.126C421.919 192.373 421.521 192.373 421.521 192.453C422.374 192.787 423.321 192.787 424.174 192.453C425.017 192.139 425.763 191.612 426.34 190.922C426.845 190.436 427.694 189.445 427.526 189.232Z" fill="var(--fill-0, #3B3A3A)"/>
<path id="Vector_105" d="M427.517 189.374C427.079 189.271 426.674 189.058 426.341 188.755C425.686 188.135 425.677 187.401 425.456 186.569C424.819 184.534 423.201 183.579 423.334 183.428C423.466 183.278 424.713 184.021 425.713 185.198C426.695 186.392 427.32 187.84 427.517 189.374V189.374Z" fill="var(--fill-0, #3B3A3A)"/>
<path id="Vector_106" d="M450.679 155.594C450.891 155.674 451.802 154.603 451.943 153.267C452.067 152.143 451.536 151.834 451.598 150.462C451.686 149.798 451.825 149.141 452.014 148.498C451.275 149.194 450.822 150.14 450.74 151.152C450.617 152.037 450.873 152.249 450.802 153.745C450.749 154.975 450.528 155.541 450.679 155.594Z" fill="var(--fill-0, #3B3A3A)"/>
<path id="Vector_107" d="M450.687 155.594C450.847 155.435 450.413 154.497 449.617 153.877C448.821 153.258 447.795 153.125 446.266 152.993C445.036 152.922 443.559 152.993 443.542 153.143C443.524 153.294 443.78 153.276 445.77 153.709C446.651 153.853 447.521 154.063 448.37 154.338C449.847 154.948 450.528 155.753 450.687 155.594Z" fill="var(--fill-0, #3B3A3A)"/>
<path id="Vector_108" d="M451.333 156.956C451.041 156.956 450.758 155.859 451.006 154.86C451.209 154.046 451.643 153.833 452.085 153.09C453.173 151.321 452.474 149.427 452.775 149.374C453.075 149.321 454.119 151.25 453.553 152.913C453.358 153.47 453.164 153.453 452.562 154.523C451.704 156.098 451.616 156.983 451.333 156.956Z" fill="var(--fill-0, #3B3A3A)"/>
<path id="Vector_109" d="M451.528 156.85C451.616 156.576 450.643 155.965 449.865 155.656C449.093 155.449 448.306 155.299 447.512 155.205C446.593 154.876 445.738 154.391 444.983 153.771C444.877 153.886 445.806 155.346 447.442 156.231C449.237 157.204 451.404 157.24 451.528 156.85Z" fill="var(--fill-0, #3B3A3A)"/>
<path id="Vector_110" d="M451.651 158.673C451.448 158.567 451.651 157.691 451.934 157.071C452.217 156.452 452.456 156.364 452.819 155.62C453.179 154.903 453.407 154.127 453.491 153.329C453.579 152.55 453.491 152.161 453.579 152.143C454.078 152.909 454.274 153.833 454.128 154.736C453.982 155.621 453.613 156.455 453.058 157.16C452.686 157.788 451.89 158.814 451.651 158.673Z" fill="var(--fill-0, #3B3A3A)"/>
<path id="Vector_111" d="M451.784 158.673C451.598 158.264 451.308 157.91 450.944 157.647C450.21 157.125 449.485 157.266 448.618 157.178C446.495 156.956 445.24 155.559 445.08 155.727C444.921 155.895 445.965 156.965 447.274 157.708C448.655 158.452 450.22 158.787 451.784 158.673V158.673Z" fill="var(--fill-0, #3B3A3A)"/>
<path id="Vector_112" d="M450.767 155.364C451.077 155.178 450.767 153.807 450.121 152.71C449.626 151.878 449.237 151.763 447.689 150.25C446.142 148.737 445.876 148.303 445.753 148.392C445.629 148.48 446.557 150.71 447.99 152.63C448.68 153.63 450.334 155.62 450.767 155.364Z" fill="var(--fill-0, #3B3A3A)"/>
<path id="Vector_113" d="M452.766 161.212C452.677 161.424 451.271 161.345 450.201 160.531C449.317 159.841 449.449 159.239 448.432 158.345C447.897 157.947 447.329 157.594 446.734 157.293C447.737 157.234 448.727 157.549 449.511 158.177C450.263 158.726 450.219 159.062 451.342 160.009C452.27 160.832 452.828 161.071 452.766 161.212Z" fill="var(--fill-0, #3B3A3A)"/>
<path id="Vector_114" d="M452.757 161.221C452.536 161.221 452.155 160.265 452.253 159.266C452.35 158.266 452.969 157.425 453.951 156.257C454.756 155.311 455.808 154.276 455.941 154.382C456.073 154.488 455.879 154.647 454.817 156.39C454.323 157.132 453.874 157.903 453.473 158.699C452.872 160.168 452.987 161.212 452.757 161.221Z" fill="var(--fill-0, #3B3A3A)"/>
<path id="Vector_115" d="M453.588 164.866C453.677 164.654 452.934 164.141 452.324 163.849C451.787 163.658 451.241 163.495 450.687 163.362C449.943 163.061 449.263 162.622 448.68 162.07C448.096 161.548 447.902 161.186 447.796 161.239C447.923 162.142 448.384 162.966 449.087 163.548C449.778 164.12 450.602 164.51 451.483 164.68C452.217 164.866 453.491 165.105 453.588 164.866Z" fill="var(--fill-0, #3B3A3A)"/>
<path id="Vector_116" d="M453.464 164.919C453.352 164.484 453.352 164.027 453.464 163.592C453.677 162.707 454.349 162.345 454.906 161.708C456.365 160.15 456.392 158.266 456.595 158.31C456.798 158.354 456.754 159.805 456.241 161.248C455.683 162.71 454.72 163.984 453.464 164.919V164.919Z" fill="var(--fill-0, #3B3A3A)"/>
<path id="Vector_117" d="M453.102 163.097C453.261 162.858 452.615 161.955 451.678 161.522C450.917 161.159 450.475 161.363 449.644 161.256C447.566 160.973 446.557 159.239 446.327 159.487C446.098 159.735 446.929 161.708 448.574 162.309C449.192 162.436 449.819 162.519 450.449 162.557C452.217 162.778 452.978 163.274 453.102 163.097Z" fill="var(--fill-0, #3B3A3A)"/>
<path id="Vector_118" d="M452.934 163.097C452.66 162.99 452.792 161.858 453.049 161.053C453.367 160.044 453.774 159.885 454.19 158.947C454.514 158.026 454.675 157.057 454.667 156.081C454.826 156.081 455.375 157.708 455.021 159.54C454.649 161.557 453.305 163.265 452.934 163.097Z" fill="var(--fill-0, #3B3A3A)"/>
<path id="Vector_119" d="M453.597 167.759C453.756 167.919 455.039 167.343 455.746 166.193C456.33 165.229 455.985 164.725 456.63 163.539C456.99 162.976 457.396 162.444 457.842 161.946C456.884 162.254 456.074 162.907 455.569 163.778C455.065 164.548 455.215 164.822 454.517 166.14C453.924 167.22 453.491 167.644 453.597 167.759Z" fill="var(--fill-0, #3B3A3A)"/>
<path id="Vector_120" d="M453.615 167.759C453.818 167.689 453.827 166.653 453.385 165.751C452.943 164.848 452.049 164.291 450.732 163.557C449.653 162.964 448.291 162.38 448.211 162.522C448.132 162.663 448.37 162.752 449.98 163.999C450.711 164.508 451.405 165.066 452.058 165.671C453.102 166.821 453.394 167.83 453.615 167.759Z" fill="var(--fill-0, #3B3A3A)"/>
<path id="Vector_121" d="M453.632 169.29C453.385 169.148 453.579 168.051 454.234 167.255C454.773 166.6 455.251 166.6 456.003 166.131C457.771 164.99 457.922 162.99 458.222 163.079C458.523 163.167 458.629 165.344 457.4 166.618C456.984 167.043 456.825 166.937 455.817 167.644C454.313 168.653 453.854 169.423 453.632 169.29Z" fill="var(--fill-0, #3B3A3A)"/>
<path id="Vector_122" d="M453.827 169.29C454.03 169.069 453.42 168.104 452.845 167.52C452.12 166.742 451.678 166.777 450.908 166.105C450.214 165.417 449.648 164.611 449.237 163.725C449.087 163.787 449.299 165.494 450.404 167.007C451.51 168.52 453.553 169.555 453.827 169.29Z" fill="var(--fill-0, #3B3A3A)"/>
<path id="Vector_123" d="M453.155 170.971C453.022 170.785 453.597 170.086 454.101 169.644C454.605 169.201 454.871 169.228 455.543 168.759C456.174 168.271 456.71 167.671 457.126 166.99C457.541 166.335 457.639 165.946 457.718 165.963C457.838 166.869 457.618 167.786 457.099 168.538C456.594 169.288 455.907 169.898 455.1 170.307C454.481 170.599 453.323 171.192 453.155 170.971Z" fill="var(--fill-0, #3B3A3A)"/>
<path id="Vector_124" d="M453.296 170.998C453.294 170.547 453.182 170.103 452.969 169.706C452.527 168.927 451.819 168.741 451.077 168.29C449.246 167.184 448.706 165.379 448.53 165.485C448.353 165.592 448.777 166.963 449.662 168.211C450.584 169.466 451.844 170.433 453.296 170.998V170.998Z" fill="var(--fill-0, #3B3A3A)"/>
<path id="Vector_125" d="M453.102 173.714C452.934 173.864 451.696 173.192 451.077 171.997C450.564 170.989 450.944 170.511 450.396 169.255C450.079 168.666 449.715 168.104 449.308 167.574C450.239 167.952 450.998 168.661 451.439 169.564C451.881 170.378 451.704 170.644 452.323 172.006C452.792 173.174 453.199 173.625 453.102 173.714Z" fill="var(--fill-0, #3B3A3A)"/>
<path id="Vector_126" d="M453.102 173.714C452.898 173.625 452.969 172.599 453.482 171.732C453.995 170.865 454.915 170.378 456.303 169.741C457.426 169.228 458.824 168.741 458.903 168.901C458.983 169.06 458.726 169.113 457.028 170.237C456.259 170.688 455.523 171.193 454.826 171.75C453.632 172.829 453.279 173.82 453.102 173.714Z" fill="var(--fill-0, #3B3A3A)"/>
<path id="Vector_127" d="M452.27 177.377C452.438 177.217 451.987 176.43 451.563 175.908C451.138 175.386 450.873 175.368 450.298 174.767C449.755 174.173 449.324 173.487 449.025 172.741C448.724 172.015 448.698 171.617 448.618 171.626C448.341 172.502 448.407 173.451 448.804 174.28C449.179 175.095 449.757 175.799 450.484 176.324C451.032 176.784 452.076 177.562 452.27 177.377Z" fill="var(--fill-0, #3B3A3A)"/>
<path id="Vector_128" d="M452.138 177.377C452.204 176.933 452.387 176.514 452.668 176.165C453.234 175.457 453.96 175.395 454.773 175.076C456.763 174.289 457.594 172.608 457.754 172.732C457.913 172.856 457.258 174.156 456.179 175.236C455.06 176.314 453.659 177.056 452.138 177.377V177.377Z" fill="var(--fill-0, #3B3A3A)"/>
<path id="Vector_129" d="M452.615 175.545C452.863 175.395 452.66 174.298 452.005 173.51C451.466 172.864 450.988 172.856 450.281 172.395C448.512 171.254 448.353 169.255 448.052 169.343C447.751 169.432 447.654 171.617 448.874 172.882C449.299 173.307 449.458 173.201 450.466 173.908C451.934 174.908 452.394 175.678 452.615 175.545Z" fill="var(--fill-0, #3B3A3A)"/>
<path id="Vector_130" d="M452.421 175.483C452.217 175.271 452.828 174.307 453.402 173.714C454.119 172.935 454.561 172.971 455.33 172.298C456.016 171.602 456.578 170.794 456.993 169.909C457.143 169.971 456.931 171.679 455.834 173.192C454.632 174.846 452.695 175.811 452.421 175.483Z" fill="var(--fill-0, #3B3A3A)"/>
<path id="Vector_131" d="M450.917 178.306C451.112 178.191 450.864 177.324 450.581 176.713C450.298 176.103 450.033 176.023 449.626 175.297C449.24 174.591 448.986 173.821 448.874 173.024C448.759 172.254 448.83 171.856 448.751 171.847C448.262 172.64 448.097 173.59 448.291 174.501C448.463 175.381 448.856 176.203 449.432 176.89C449.847 177.43 450.679 178.438 450.917 178.306Z" fill="var(--fill-0, #3B3A3A)"/>
<path id="Vector_132" d="M450.776 178.27C450.957 177.858 451.236 177.496 451.589 177.217C452.306 176.678 453.031 176.793 453.889 176.678C456.011 176.395 457.223 174.952 457.347 175.112C457.471 175.271 456.533 176.377 455.215 177.164C453.871 177.949 452.331 178.333 450.776 178.27V178.27Z" fill="var(--fill-0, #3B3A3A)"/>
<path id="Vector_133" d="M449.087 180.553C449.087 180.783 450.466 181.146 451.74 180.703C452.81 180.332 452.863 179.721 454.128 179.19C454.763 178.983 455.413 178.827 456.073 178.722C455.134 178.36 454.094 178.36 453.155 178.722C452.27 179.005 452.217 179.314 450.847 179.889C449.679 180.349 449.069 180.403 449.087 180.553Z" fill="var(--fill-0, #3B3A3A)"/>
<path id="Vector_134" d="M449.096 180.571C449.299 180.641 449.98 179.845 450.183 178.863C450.387 177.881 450.077 176.899 449.502 175.474C449.042 174.333 448.362 173.015 448.202 173.077C448.043 173.139 448.202 173.351 448.636 175.333C448.881 176.204 449.067 177.091 449.193 177.987C449.308 179.527 448.874 180.491 449.096 180.571Z" fill="var(--fill-0, #3B3A3A)"/>
<path id="Vector_135" d="M448.14 181.756C448.043 181.491 448.892 180.765 449.909 180.562C450.732 180.394 451.112 180.695 451.952 180.783C454.03 181.004 455.428 179.562 455.605 179.819C455.781 180.075 454.481 181.836 452.748 182.031C452.116 182.011 451.486 181.943 450.864 181.827C449.069 181.677 448.229 182.004 448.14 181.756Z" fill="var(--fill-0, #3B3A3A)"/>
<path id="Vector_136" d="M448.308 181.862C448.6 181.862 448.742 180.695 448.68 179.854C448.535 179.065 448.334 178.287 448.079 177.527C447.983 176.558 448.052 175.58 448.282 174.634C448.132 174.634 447.221 176.05 447.123 177.908C447.017 179.951 447.91 181.915 448.308 181.862Z" fill="var(--fill-0, #3B3A3A)"/>
<path id="Vector_137" d="M446.708 182.765C446.708 182.535 447.592 182.358 448.282 182.331C448.972 182.305 449.166 182.499 449.971 182.535C450.775 182.558 451.576 182.428 452.332 182.154C453.075 181.907 453.394 181.668 453.438 181.73C452.963 182.512 452.212 183.086 451.333 183.34C450.469 183.588 449.557 183.615 448.68 183.42C447.972 183.313 446.699 183.039 446.708 182.765Z" fill="var(--fill-0, #3B3A3A)"/>
<path id="Vector_138" d="M446.796 182.871C447.088 182.527 447.283 182.112 447.362 181.668C447.391 180.865 447.191 180.07 446.787 179.376C446.071 177.359 446.787 175.625 446.593 175.589C446.398 175.554 445.85 176.89 445.708 178.421C445.644 179.977 446.022 181.52 446.796 182.871V182.871Z" fill="var(--fill-0, #3B3A3A)"/>
<path id="Vector_139" d="M444.912 184.862C444.682 184.862 444.152 183.561 444.426 182.252C444.665 181.146 445.266 181.013 445.629 179.686C445.754 179.029 445.828 178.363 445.85 177.695C446.329 178.583 446.468 179.615 446.239 180.597C446.071 181.482 445.77 181.597 445.355 183.03C445.036 184.242 445.063 184.853 444.912 184.862Z" fill="var(--fill-0, #3B3A3A)"/>
<path id="Vector_140" d="M444.895 184.853C444.797 184.658 445.505 183.897 446.442 183.552C447.38 183.207 448.415 183.411 449.891 183.8C450.794 183.972 451.657 184.308 452.438 184.791C452.438 184.862 452.173 184.844 450.139 184.641C449.26 184.511 448.374 184.437 447.486 184.419C445.903 184.508 445.001 185.056 444.895 184.853Z" fill="var(--fill-0, #3B3A3A)"/>
<path id="Vector_141" d="M441.976 187.162C442.206 187.162 442.348 186.277 442.357 185.578C442.365 184.879 442.153 184.694 442.091 183.897C442.044 183.092 442.146 182.285 442.392 181.517C442.622 180.774 442.852 180.447 442.781 180.403C442.018 180.904 441.471 181.675 441.251 182.561C441.024 183.432 441.024 184.346 441.251 185.216C441.384 185.923 441.702 187.189 441.976 187.162Z" fill="var(--fill-0, #3B3A3A)"/>
<path id="Vector_142" d="M441.861 187.082C442.199 186.783 442.607 186.573 443.046 186.472C443.85 186.417 444.653 186.588 445.363 186.967C447.398 187.622 449.113 186.835 449.157 187.038C449.202 187.242 447.875 187.826 446.354 187.976C444.802 188.109 443.244 187.8 441.861 187.082V187.082Z" fill="var(--fill-0, #3B3A3A)"/>
<path id="Vector_143" d="M443.374 185.968C443.657 185.968 444.196 185.03 444.187 184.004C444.187 183.163 443.807 182.853 443.551 182.048C442.914 180.058 444.046 178.394 443.754 178.279C443.462 178.164 441.985 179.783 442.171 181.526C442.323 182.129 442.518 182.721 442.755 183.296C443.268 185.048 443.135 185.932 443.374 185.968Z" fill="var(--fill-0, #3B3A3A)"/>
<path id="Vector_144" d="M443.259 185.826C443.259 185.525 444.32 185.163 445.151 185.048C445.952 185.035 446.753 185.077 447.548 185.171C448.517 185.069 449.462 184.802 450.343 184.384C450.422 184.517 449.175 185.711 447.371 186.153C445.399 186.702 443.285 186.224 443.259 185.826Z" fill="var(--fill-0, #3B3A3A)"/>
<path id="Vector_145" d="M439.889 188.33C440.119 188.33 440.225 187.445 440.208 186.737C440.19 186.03 439.969 185.853 439.88 185.056C439.8 184.257 439.869 183.45 440.084 182.676C440.269 181.916 440.491 181.579 440.42 181.544C439.682 182.081 439.168 182.872 438.978 183.765C438.791 184.645 438.831 185.558 439.093 186.419C439.252 187.109 439.615 188.365 439.889 188.33Z" fill="var(--fill-0, #3B3A3A)"/>
<path id="Vector_146" d="M439.774 188.25C440.1 187.939 440.498 187.714 440.933 187.596C441.817 187.383 442.427 187.773 443.268 188.003C445.328 188.569 447.008 187.72 447.053 187.914C447.097 188.109 445.815 188.755 444.293 188.967C442.75 189.161 441.183 188.912 439.774 188.25V188.25Z" fill="var(--fill-0, #3B3A3A)"/>
<path id="Vector_147" d="M438.244 188.259C438.474 188.259 438.793 187.445 438.934 186.782C439.076 186.118 438.934 185.897 439.022 185.083C439.134 184.286 439.395 183.518 439.792 182.818C440.155 182.128 440.446 181.854 440.393 181.792C439.544 182.133 438.853 182.78 438.457 183.605C438.067 184.412 437.887 185.303 437.935 186.198C437.917 186.923 437.979 188.224 438.244 188.259Z" fill="var(--fill-0, #3B3A3A)"/>
<path id="Vector_148" d="M438.156 188.153C438.544 187.93 438.982 187.808 439.429 187.799C440.314 187.799 440.844 188.321 441.605 188.746C443.471 189.79 445.302 189.374 445.302 189.578C445.302 189.781 443.887 190.091 442.365 189.94C440.822 189.755 439.362 189.135 438.156 188.153V188.153Z" fill="var(--fill-0, #3B3A3A)"/>
<path id="Vector_149" d="M435.414 188.958C435.29 189.153 436.157 190.259 437.439 190.666C438.518 191.011 438.925 190.551 440.261 190.896C440.894 191.104 441.507 191.371 442.091 191.692C441.563 190.837 440.738 190.207 439.774 189.923C438.89 189.622 438.669 189.834 437.227 189.471C436.024 189.153 435.512 188.825 435.414 188.958Z" fill="var(--fill-0, #3B3A3A)"/>
<path id="Vector_150" d="M435.414 188.976C435.529 189.153 436.537 188.914 437.307 188.268C438.076 187.622 438.403 186.631 438.793 185.145C439.111 183.95 439.359 182.491 439.199 182.491C439.04 182.491 439.014 182.694 438.191 184.561C437.874 185.396 437.495 186.206 437.059 186.985C436.228 188.268 435.308 188.755 435.414 188.976Z" fill="var(--fill-0, #3B3A3A)"/>
<path id="Vector_151" d="M433.955 189.356C434.043 189.082 435.149 189.011 436.077 189.454C436.838 189.816 436.962 190.285 437.572 190.86C439.102 192.285 441.11 191.975 441.11 192.285C441.11 192.595 439.005 193.223 437.492 192.285C436.98 191.984 437.041 191.807 436.113 190.993C434.733 189.869 433.875 189.639 433.955 189.356Z" fill="var(--fill-0, #3B3A3A)"/>
<path id="Vector_152" d="M434.026 189.542C434.282 189.684 435.069 188.861 435.529 188.153C435.875 187.434 436.171 186.692 436.414 185.932C436.915 185.096 437.562 184.355 438.324 183.747C438.227 183.614 436.617 184.234 435.423 185.667C434.141 187.233 433.645 189.347 434.026 189.542Z" fill="var(--fill-0, #3B3A3A)"/>
<path id="Vector_153" d="M432.204 189.294C432.345 189.117 433.159 189.507 433.716 189.896C434.273 190.285 434.3 190.551 434.946 191.073C435.576 191.575 436.296 191.954 437.068 192.188C437.811 192.435 438.209 192.435 438.2 192.515C437.347 192.849 436.4 192.849 435.547 192.515C434.708 192.199 433.965 191.672 433.389 190.984C432.885 190.524 432.027 189.507 432.204 189.294Z" fill="var(--fill-0, #3B3A3A)"/>
<path id="Vector_154" d="M432.213 189.436C432.649 189.334 433.051 189.12 433.38 188.817C434.043 188.197 434.043 187.463 434.309 186.631C434.946 184.596 436.564 183.641 436.422 183.49C436.281 183.34 435.043 184.083 434.043 185.26C433.054 186.453 432.42 187.9 432.213 189.436V189.436Z" fill="var(--fill-0, #3B3A3A)"/>
<path id="Vector_155" d="M419.743 161.035H420.451V162.637C420.231 162.8 419.986 162.926 419.725 163.008C419.44 163.1 419.141 163.145 418.841 163.141C418.456 163.146 418.076 163.055 417.736 162.875C417.412 162.7 417.143 162.44 416.955 162.124C416.767 161.808 416.668 161.447 416.668 161.079C416.668 160.712 416.767 160.351 416.955 160.034C417.143 159.718 417.412 159.459 417.736 159.283C418.049 159.127 418.392 159.038 418.742 159.021C419.092 159.004 419.442 159.06 419.77 159.186C420.039 159.289 420.278 159.456 420.468 159.673L419.991 160.124C419.748 159.891 419.439 159.739 419.106 159.69C418.773 159.641 418.433 159.696 418.133 159.85C417.918 159.962 417.74 160.134 417.621 160.345C417.499 160.569 417.435 160.82 417.435 161.075C417.435 161.33 417.499 161.581 417.621 161.805C417.742 162.017 417.92 162.191 418.133 162.309C418.364 162.433 418.624 162.494 418.885 162.486C419.173 162.495 419.457 162.424 419.708 162.283L419.743 161.035Z" fill="var(--fill-0, #3B3A3A)"/>
<path id="Vector_156" d="M424.05 163.097L423.236 161.92H422.149V163.097H421.406V159.08H423.051C423.354 159.078 423.655 159.138 423.935 159.257C424.175 159.358 424.381 159.527 424.528 159.743C424.666 159.976 424.736 160.243 424.731 160.513C424.739 160.789 424.662 161.061 424.51 161.292C424.356 161.516 424.137 161.686 423.882 161.778L424.766 163.097H424.05ZM423.785 159.92C423.568 159.768 423.306 159.696 423.042 159.717H422.157V161.327H423.042C423.305 161.345 423.567 161.273 423.785 161.124C423.869 161.05 423.935 160.959 423.978 160.856C424.021 160.753 424.039 160.642 424.032 160.531C424.044 160.415 424.028 160.298 423.985 160.191C423.942 160.083 423.873 159.987 423.785 159.912V159.92Z" fill="var(--fill-0, #3B3A3A)"/>
<path id="Vector_157" d="M428.215 162.159H426.208L425.819 163.088H425.049L426.818 159.071H427.552L429.4 163.097H428.622L428.215 162.159ZM427.968 161.575L427.216 159.805L426.464 161.575H427.968Z" fill="var(--fill-0, #3B3A3A)"/>
<path id="Vector_158" d="M432.469 159.248C432.71 159.35 432.915 159.519 433.062 159.735C433.2 159.967 433.27 160.234 433.265 160.504C433.27 160.769 433.199 161.03 433.062 161.256C432.919 161.48 432.713 161.656 432.469 161.761C432.188 161.871 431.888 161.928 431.585 161.929H430.701V163.097H429.958V159.08H431.611C431.906 159.08 432.197 159.137 432.469 159.248ZM432.266 161.088C432.35 161.017 432.417 160.927 432.46 160.826C432.503 160.725 432.521 160.614 432.513 160.504C432.521 160.393 432.503 160.282 432.46 160.179C432.417 160.076 432.35 159.984 432.266 159.912C432.05 159.759 431.787 159.687 431.523 159.708H430.639V161.327H431.523C431.791 161.338 432.054 161.253 432.266 161.088Z" fill="var(--fill-0, #3B3A3A)"/>
<path id="Vector_159" d="M437.572 159.071V163.097H436.829V161.327H434.751V163.097H434.008V159.08H434.751V160.743H436.829V159.08L437.572 159.071Z" fill="var(--fill-0, #3B3A3A)"/>
<path id="Vector_160" d="M438.651 159.071H439.394V163.097H438.651V159.071Z" fill="var(--fill-0, #3B3A3A)"/>
<path id="Vector_161" d="M441.242 162.875C440.924 162.705 440.658 162.451 440.473 162.141C440.284 161.819 440.186 161.452 440.19 161.079C440.187 160.706 440.285 160.34 440.473 160.018C440.658 159.707 440.924 159.453 441.242 159.283C441.58 159.104 441.957 159.012 442.339 159.018C442.642 159.015 442.942 159.072 443.223 159.186C443.491 159.295 443.728 159.468 443.913 159.69L443.427 160.142C443.293 159.99 443.129 159.869 442.944 159.788C442.759 159.707 442.558 159.668 442.357 159.673C442.101 159.665 441.847 159.726 441.623 159.85C441.409 159.968 441.231 160.142 441.11 160.354C440.988 160.576 440.924 160.826 440.924 161.079C440.924 161.333 440.988 161.582 441.11 161.805C441.229 162.018 441.407 162.193 441.623 162.309C441.847 162.433 442.101 162.494 442.357 162.486C442.558 162.491 442.759 162.452 442.944 162.371C443.129 162.29 443.293 162.169 443.427 162.017L443.913 162.468C443.728 162.69 443.491 162.864 443.223 162.973C442.942 163.086 442.642 163.143 442.339 163.141C441.957 163.148 441.579 163.056 441.242 162.875V162.875Z" fill="var(--fill-0, #3B3A3A)"/>
<path id="Vector_162" d="M416.948 165.45H418.531C418.886 165.443 419.237 165.519 419.557 165.671C419.844 165.813 420.084 166.034 420.247 166.308C420.417 166.594 420.503 166.922 420.495 167.255C420.503 167.588 420.417 167.916 420.247 168.202C420.08 168.471 419.841 168.689 419.557 168.83C419.238 168.986 418.887 169.065 418.531 169.06H416.948V165.45ZM418.496 168.494C418.739 168.499 418.978 168.444 419.195 168.334C419.391 168.244 419.553 168.092 419.655 167.901C419.771 167.706 419.829 167.482 419.823 167.255C419.829 167.025 419.771 166.798 419.655 166.6C419.55 166.412 419.389 166.26 419.195 166.167C418.978 166.06 418.738 166.009 418.496 166.016H417.612V168.494H418.496Z" fill="var(--fill-0, #3B3A3A)"/>
<path id="Vector_163" d="M423.917 168.494V169.06H421.211V165.45H423.864V166.007H421.901V166.945H423.67V167.52H421.901V168.511L423.917 168.494Z" fill="var(--fill-0, #3B3A3A)"/>
<path id="Vector_164" d="M424.97 168.989C424.748 168.927 424.541 168.821 424.36 168.679L424.589 168.157C424.752 168.281 424.935 168.377 425.129 168.441C425.34 168.51 425.561 168.546 425.783 168.547C425.991 168.563 426.2 168.52 426.385 168.423C426.444 168.387 426.494 168.337 426.528 168.276C426.562 168.216 426.58 168.147 426.579 168.078C426.581 168.03 426.572 167.983 426.552 167.94C426.532 167.897 426.502 167.859 426.464 167.83C426.388 167.755 426.293 167.7 426.19 167.671L425.686 167.52C425.461 167.47 425.239 167.405 425.023 167.326C424.852 167.261 424.7 167.155 424.581 167.016C424.45 166.861 424.384 166.661 424.395 166.459C424.396 166.263 424.455 166.073 424.563 165.91C424.686 165.738 424.854 165.603 425.049 165.521C425.305 165.419 425.579 165.37 425.854 165.379C426.072 165.379 426.289 165.406 426.5 165.459C426.698 165.506 426.886 165.587 427.057 165.698L426.845 166.22C426.691 166.125 426.524 166.054 426.349 166.008C426.186 165.959 426.016 165.935 425.845 165.937C425.642 165.921 425.438 165.968 425.262 166.069C425.201 166.106 425.15 166.158 425.116 166.22C425.082 166.282 425.065 166.352 425.067 166.423C425.065 166.471 425.074 166.519 425.092 166.563C425.111 166.607 425.138 166.647 425.173 166.68C425.258 166.747 425.353 166.798 425.456 166.83L425.916 166.963C426.142 167.009 426.364 167.074 426.579 167.158C426.748 167.222 426.9 167.325 427.022 167.459C427.151 167.615 427.217 167.813 427.207 168.016C427.212 168.209 427.153 168.399 427.039 168.556C426.918 168.73 426.749 168.865 426.553 168.945C426.297 169.047 426.023 169.095 425.748 169.086C425.485 169.091 425.223 169.058 424.97 168.989V168.989Z" fill="var(--fill-0, #3B3A3A)"/>
<path id="Vector_165" d="M427.906 165.45H428.578V169.06H427.906V165.45Z" fill="var(--fill-0, #3B3A3A)"/>
<path id="Vector_166" d="M432.009 167.211H432.646V168.653C432.452 168.801 432.233 168.915 432.001 168.989C431.752 169.068 431.492 169.106 431.231 169.104C430.886 169.109 430.545 169.027 430.241 168.865C429.951 168.713 429.709 168.483 429.542 168.202C429.372 167.916 429.286 167.588 429.294 167.255C429.288 166.92 429.374 166.589 429.542 166.299C429.709 166.018 429.951 165.788 430.241 165.636C430.523 165.495 430.832 165.415 431.147 165.4C431.462 165.384 431.777 165.435 432.071 165.547C432.31 165.638 432.523 165.787 432.69 165.981L432.266 166.397C432.138 166.264 431.984 166.158 431.814 166.086C431.643 166.015 431.46 165.979 431.275 165.981C431.039 165.977 430.805 166.032 430.594 166.14C430.402 166.245 430.243 166.401 430.135 166.591C430.019 166.793 429.961 167.023 429.966 167.255C429.962 167.482 430.02 167.705 430.135 167.901C430.243 168.091 430.402 168.247 430.594 168.352C430.8 168.466 431.032 168.524 431.267 168.52C431.526 168.526 431.783 168.462 432.009 168.334V167.211Z" fill="var(--fill-0, #3B3A3A)"/>
<path id="Vector_167" d="M436.732 165.45V169.06H436.184L434.194 166.636V169.086H433.531V165.477H434.079L436.069 167.919V165.477L436.732 165.45Z" fill="var(--fill-0, #3B3A3A)"/>
<path id="Vector_168" d="M440.411 168.494V169.06H437.705V165.45H440.358V166.007H438.395V166.945H440.163V167.52H438.395V168.511L440.411 168.494Z" fill="var(--fill-0, #3B3A3A)"/>
<path id="Vector_169" d="M443.515 169.06L442.781 167.998H441.826V169.051H441.154V165.441H442.64C442.918 165.432 443.196 165.484 443.453 165.592C443.674 165.681 443.862 165.835 443.993 166.034C444.12 166.241 444.185 166.481 444.178 166.724C444.183 166.972 444.112 167.216 443.975 167.423C443.836 167.625 443.639 167.78 443.409 167.866L444.24 169.051L443.515 169.06ZM443.276 166.202C443.083 166.066 442.849 166 442.613 166.016H441.826V167.45H442.613C442.849 167.466 443.083 167.4 443.276 167.264C443.347 167.195 443.403 167.112 443.441 167.021C443.48 166.93 443.499 166.832 443.499 166.733C443.499 166.634 443.48 166.536 443.441 166.445C443.403 166.354 443.347 166.271 443.276 166.202V166.202Z" fill="var(--fill-0, #3B3A3A)"/>
<path id="Vector_170" d="M419.717 174.422H417.638L417.231 175.386H416.435L418.302 171.236H419.062L420.937 175.386H420.123L419.717 174.422ZM419.46 173.82L418.673 172.006L417.904 173.82H419.46Z" fill="var(--fill-0, #3B3A3A)"/>
<path id="Vector_171" d="M427.304 171.236L425.925 175.386H425.111L424.085 172.316L423.033 175.386H422.21L420.84 171.236H421.636L422.662 174.386L423.74 171.236H424.448L425.5 174.404L426.57 171.236H427.304Z" fill="var(--fill-0, #3B3A3A)"/>
<path id="Vector_172" d="M430.488 174.422H428.41L428.003 175.386H427.216L429.073 171.236H429.834L431.709 175.386H430.904L430.488 174.422ZM430.232 173.82L429.454 172.006L428.675 173.82H430.232Z" fill="var(--fill-0, #3B3A3A)"/>
<path id="Vector_173" d="M434.945 175.386L434.061 174.174H432.973V175.386H432.204V171.236H433.902C434.226 171.231 434.548 171.291 434.848 171.413C435.102 171.52 435.317 171.702 435.464 171.934C435.611 172.167 435.683 172.439 435.671 172.714C435.676 172.999 435.596 173.28 435.441 173.519C435.278 173.749 435.05 173.925 434.786 174.023L435.741 175.386H434.945ZM434.671 172.103C434.446 171.948 434.175 171.873 433.902 171.891H433.018V173.546H433.902C434.176 173.561 434.447 173.483 434.671 173.324C434.828 173.16 434.916 172.941 434.916 172.714C434.916 172.487 434.828 172.268 434.671 172.103V172.103Z" fill="var(--fill-0, #3B3A3A)"/>
<path id="Vector_174" d="M436.564 171.236H438.377C438.783 171.231 439.186 171.318 439.553 171.493C439.885 171.657 440.164 171.912 440.358 172.227C440.544 172.558 440.642 172.932 440.642 173.311C440.642 173.691 440.544 174.064 440.358 174.395C440.164 174.711 439.885 174.965 439.553 175.129C439.186 175.304 438.783 175.392 438.377 175.386H436.564V171.236ZM438.333 174.775C438.611 174.784 438.888 174.723 439.137 174.599C439.361 174.492 439.546 174.319 439.668 174.103C439.79 173.873 439.853 173.616 439.853 173.355C439.853 173.095 439.79 172.838 439.668 172.608C439.544 172.391 439.36 172.216 439.137 172.104C438.886 171.985 438.61 171.927 438.333 171.935H437.324V174.775H438.333Z" fill="var(--fill-0, #3B3A3A)"/>
<path id="Vector_175" d="M441.817 175.306C441.558 175.239 441.316 175.115 441.11 174.944L441.375 174.351C441.565 174.493 441.777 174.603 442.003 174.678C442.243 174.758 442.493 174.8 442.746 174.802C442.985 174.821 443.226 174.769 443.436 174.652C443.504 174.613 443.561 174.556 443.6 174.488C443.639 174.419 443.659 174.341 443.657 174.262C443.659 174.208 443.649 174.153 443.627 174.102C443.606 174.052 443.574 174.007 443.533 173.97C443.44 173.89 443.332 173.83 443.214 173.793C443.082 173.749 442.905 173.696 442.675 173.643C442.417 173.582 442.163 173.506 441.914 173.413C441.719 173.344 441.545 173.225 441.41 173.068C441.261 172.884 441.185 172.65 441.198 172.413C441.196 172.193 441.261 171.977 441.384 171.794C441.523 171.59 441.72 171.433 441.95 171.343C442.231 171.23 442.531 171.173 442.834 171.175C443.085 171.176 443.334 171.209 443.577 171.272C443.804 171.323 444.02 171.416 444.214 171.546L443.966 172.148C443.791 172.036 443.6 171.953 443.4 171.9C443.213 171.848 443.02 171.821 442.825 171.82C442.588 171.802 442.351 171.854 442.144 171.971C442.077 172.015 442.022 172.076 441.983 172.147C441.945 172.218 441.924 172.297 441.923 172.378C441.921 172.433 441.932 172.489 441.955 172.54C441.978 172.59 442.012 172.635 442.056 172.67C442.147 172.753 442.256 172.813 442.374 172.847C442.507 172.847 442.684 172.944 442.905 172.997C443.164 173.051 443.418 173.125 443.665 173.218C443.861 173.291 444.035 173.413 444.17 173.572C444.321 173.748 444.397 173.977 444.382 174.209C444.384 174.432 444.319 174.651 444.196 174.837C444.054 175.036 443.857 175.19 443.63 175.28C443.349 175.392 443.049 175.45 442.746 175.448C442.431 175.446 442.118 175.398 441.817 175.306Z" fill="var(--fill-0, #3B3A3A)"/>
<path id="Vector_176" d="M415.392 274.338C415.486 278.134 417.059 281.744 419.776 284.396C422.493 287.048 426.139 288.533 429.936 288.533C433.732 288.533 437.378 287.048 440.095 284.396C442.812 281.744 444.386 278.134 444.479 274.338H415.392Z" fill="var(--fill-0, #3B3A3A)"/>
<path id="Vector_177" d="M417.727 251.679V255.05H422.149V255.837H417.727V259.536H416.842V250.936H422.732V251.723L417.727 251.679Z" fill="var(--fill-0, #3B3A3A)"/>
<path id="Vector_178" d="M424.572 250.891H425.456V259.535H424.572V250.891Z" fill="var(--fill-0, #3B3A3A)"/>
<path id="Vector_179" d="M435.467 250.891V259.535H434.716L429.224 252.511V259.535H428.339V250.936H429.091L434.627 257.916V250.936L435.467 250.891Z" fill="var(--fill-0, #3B3A3A)"/>
<path id="Vector_180" d="M444.346 258.704V259.536H438.262V250.936H444.161V251.723H439.173V254.775H443.595V255.554H439.173V258.748L444.346 258.704Z" fill="var(--fill-0, #3B3A3A)"/>
<path id="Vector_181" d="M421.609 269.347H417.187L416.241 271.453H415.357L418.956 263.579H419.778L423.378 271.453H422.493L421.609 269.347ZM421.3 268.675L419.416 264.446L417.523 268.675H421.3Z" fill="var(--fill-0, #3B3A3A)"/>
<path id="Vector_182" d="M430.108 271.453L428.339 268.923C428.13 268.936 427.92 268.936 427.711 268.923H425.598V271.418H424.766V263.543H427.711C428.56 263.494 429.398 263.751 430.073 264.269C430.362 264.508 430.592 264.81 430.745 265.152C430.898 265.494 430.971 265.867 430.957 266.242C430.985 266.794 430.825 267.339 430.504 267.789C430.183 268.238 429.719 268.566 429.188 268.719L431.116 271.418L430.108 271.453ZM429.445 267.728C429.653 267.551 429.817 267.327 429.925 267.076C430.032 266.824 430.08 266.551 430.064 266.277C430.079 266.002 430.03 265.726 429.923 265.472C429.816 265.217 429.652 264.991 429.445 264.809C428.929 264.444 428.306 264.267 427.676 264.304H425.58V268.25H427.676C428.308 268.287 428.934 268.103 429.445 267.728V267.728Z" fill="var(--fill-0, #3B3A3A)"/>
<path id="Vector_183" d="M434.273 264.304H431.514V263.579H437.873V264.304H435.114V271.453H434.229L434.273 264.304Z" fill="var(--fill-0, #3B3A3A)"/>
<path id="Vector_184" d="M439.571 271.241C439.101 271.097 438.673 270.842 438.324 270.498L438.651 269.861C438.975 270.168 439.361 270.404 439.783 270.551C440.253 270.727 440.75 270.816 441.251 270.816C441.807 270.856 442.36 270.72 442.834 270.427C443 270.316 443.135 270.166 443.227 269.99C443.32 269.814 443.367 269.617 443.365 269.418C443.371 269.28 443.348 269.141 443.298 269.011C443.248 268.882 443.171 268.764 443.073 268.666C442.875 268.472 442.636 268.324 442.374 268.233C441.994 268.104 441.607 267.994 441.216 267.905C440.749 267.795 440.288 267.659 439.836 267.498C439.497 267.356 439.195 267.138 438.952 266.861C438.69 266.534 438.558 266.121 438.58 265.702C438.578 265.317 438.685 264.94 438.89 264.614C439.129 264.263 439.468 263.992 439.863 263.835C440.376 263.626 440.927 263.526 441.481 263.543C441.927 263.543 442.37 263.606 442.799 263.729C443.199 263.837 443.578 264.01 443.922 264.242L443.639 264.906C443.312 264.688 442.955 264.521 442.578 264.411C442.221 264.307 441.852 264.253 441.481 264.251C440.933 264.212 440.387 264.352 439.925 264.649C439.76 264.764 439.626 264.918 439.535 265.097C439.444 265.276 439.399 265.475 439.403 265.676C439.395 265.815 439.416 265.955 439.465 266.086C439.514 266.217 439.589 266.336 439.686 266.437C439.89 266.634 440.134 266.785 440.402 266.879C440.694 266.976 441.083 267.091 441.57 267.206C442.044 267.317 442.511 267.458 442.967 267.631C443.308 267.765 443.612 267.981 443.851 268.259C444.112 268.581 444.244 268.987 444.223 269.401C444.226 269.787 444.116 270.165 443.904 270.489C443.663 270.84 443.321 271.108 442.923 271.259C442.406 271.467 441.852 271.566 441.295 271.551C440.707 271.548 440.123 271.443 439.571 271.241V271.241Z" fill="var(--fill-0, #3B3A3A)"/>
</g>
</svg>
