<svg preserveAspectRatio="none" width="100%" height="100%" overflow="visible" style="display: block;" viewBox="0 0 32 32" fill="none" xmlns="http://www.w3.org/2000/svg">
<g id="icon">
<path id="Vector" d="M16.8393 8.0198C16.4964 7.33142 15.5068 7.3248 15.1607 8.0198L8.59821 21.2073C8.44934 21.5064 8.4709 21.8621 8.65484 22.141L12.25 27.5937V31.0625C12.25 31.5802 12.6697 32 13.1875 32H18.8125C19.3302 32 19.75 31.5802 19.75 31.0625V27.5937L23.3451 22.141C23.529 21.8621 23.5506 21.5064 23.4017 21.2073L16.8393 8.0198ZM17.875 30.125H14.125V28.25H17.875V30.125ZM18.3077 26.375H13.6923L10.5173 21.5595L15.0625 12.4257V21.625C15.0625 22.1427 15.4822 22.5625 16 22.5625C16.5177 22.5625 16.9375 22.1427 16.9375 21.625V12.4257L21.4827 21.5595L18.3077 26.375Z" fill="var(--fill-0, #9E5CF2)"/>
<path id="Vector_2" d="M29.1875 0C27.9653 0 26.9232 0.783813 26.5362 1.875H18.8125V0.9375C18.8125 0.41975 18.3928 0 17.875 0H14.125C13.6072 0 13.1875 0.41975 13.1875 0.9375V1.875H5.46375C5.07675 0.783813 4.03469 0 2.8125 0C1.26169 0 0 1.26169 0 2.8125C0 4.36331 1.26169 5.625 2.8125 5.625C4.03469 5.625 5.07675 4.84056 5.46375 3.74938H8.97081C4.60231 6.25819 1.875 10.8929 1.875 15.9375C1.875 16.4553 2.29475 16.875 2.8125 16.875C3.33025 16.875 3.75 16.4553 3.75 15.9375C3.75 10.281 7.73744 5.36125 13.1875 4.07613V4.6875C13.1875 5.20525 13.6072 5.625 14.125 5.625H17.875C18.3928 5.625 18.8125 5.20525 18.8125 4.6875V4.07606C24.2626 5.36125 28.25 10.281 28.25 15.9375C28.25 16.4553 28.6697 16.875 29.1875 16.875C29.7053 16.875 30.125 16.4553 30.125 15.9375C30.125 10.8994 27.4031 6.26194 23.0292 3.75H26.5362C26.9232 4.84119 27.9653 5.625 29.1875 5.625C30.7383 5.625 32 4.36331 32 2.8125C32 1.26169 30.7383 0 29.1875 0ZM2.8125 3.75C2.29556 3.75 1.875 3.32944 1.875 2.8125C1.875 2.29556 2.29556 1.875 2.8125 1.875C3.32944 1.875 3.75 2.29556 3.75 2.8125C3.75 3.32944 3.32944 3.75 2.8125 3.75ZM16.9375 3.75H15.0625V1.875H16.9375V3.75ZM29.1875 3.75C28.6706 3.75 28.25 3.32944 28.25 2.8125C28.25 2.29556 28.6706 1.875 29.1875 1.875C29.7044 1.875 30.125 2.29556 30.125 2.8125C30.125 3.32944 29.7044 3.75 29.1875 3.75Z" fill="var(--fill-0, #9E5CF2)"/>
</g>
</svg>
