<svg preserveAspectRatio="none" width="100%" height="100%" overflow="visible" style="display: block;" viewBox="0 0 32 20.2105" fill="none" xmlns="http://www.w3.org/2000/svg">
<g id="Icon">
<path id="Vector" d="M23.0698 4.11696C23.0698 1.8429 21.2376 0 18.9767 0H4.09302C1.83219 0 0 1.8429 0 4.11696V16.0936C0 18.3676 1.83219 20.2105 4.09302 20.2105H18.9767C21.2376 20.2105 23.0698 18.3676 23.0698 16.0936V4.11696ZM20.8372 4.11696V16.0936C20.8372 17.1265 20.0037 17.9649 18.9767 17.9649H4.09302C3.06605 17.9649 2.23256 17.1265 2.23256 16.0936V4.11696C2.23256 3.08398 3.06605 2.24561 4.09302 2.24561H18.9767C20.0037 2.24561 20.8372 3.08398 20.8372 4.11696Z" fill="var(--fill-0, #FF3C31)"/>
<path id="Vector_2" d="M32 16.4814V3.72927C32 2.79061 31.5014 1.9253 30.6932 1.45821C29.8835 0.989623 28.8878 0.994115 28.0826 1.46569C25.4377 3.01816 21.3908 5.39252 21.3908 5.39252C21.0485 5.59463 20.8372 5.96291 20.8372 6.36263V13.848C20.8372 14.2477 21.0485 14.616 21.3908 14.8181C21.3908 14.8181 25.4377 17.1925 28.0826 18.7449C28.8878 19.2165 29.8835 19.221 30.6932 18.7524C31.5014 18.2853 32 17.42 32 16.4814ZM29.7674 3.72927V16.4814C29.7674 16.6161 29.696 16.7389 29.5814 16.8062C29.4653 16.8721 29.3224 16.8721 29.2078 16.8047L23.0697 13.2028V7.00787L29.2078 3.4059C29.3224 3.33854 29.4653 3.33854 29.5814 3.40441C29.696 3.47178 29.7674 3.59454 29.7674 3.72927V3.72927Z" fill="var(--fill-0, #FF3C31)"/>
<path id="Vector_3" d="M16.0001 4.49116H13.0234C12.4072 4.49116 11.9071 4.99418 11.9071 5.61397C11.9071 6.23376 12.4072 6.73677 13.0234 6.73677H16.0001C16.6163 6.73677 17.1164 6.23376 17.1164 5.61397C17.1164 4.99418 16.6163 4.49116 16.0001 4.49116Z" fill="var(--fill-0, #FF3C31)"/>
</g>
</svg>
